<?xml version="1.0" encoding="utf-8"?>
<!-- Generator: Adobe Illustrator 21.0.0, SVG Export Plug-In . SVG Version: 6.00 Build 0)  -->
<svg version="1.1" id="Layer_1" xmlns="http://www.w3.org/2000/svg" xmlns:xlink="http://www.w3.org/1999/xlink" x="0px" y="0px"
	 viewBox="0 0 1000 700" style="enable-background:new 0 0 1000 700;" xml:space="preserve">
<style type="text/css">
	.st0{fill:#FC60A8;}
	.st1{fill:#494368;}
	.st2{fill:#FFFFFF;}
	.st3{fill:#AF316C;}
</style>
<g>
	<path class="st0" d="M792.5,195.6L642.5,58l-21.1,23l125,114.6H253.7l125-114.7l-21.1-23l-150,137.7h-0.1v90.7
		c0,41,39.5,74.4,88,74.4H388c48.5,0,88-33.4,88-74.4v-59.6h48v59.6c0,41,39.5,74.4,88,74.4h92.5c48.5,0,88-33.4,88-74.4V195.6z"/>
	<path class="st1" d="M258.1,584.7c4,0,7.3,1.4,10.1,4.2c2.8,2.8,4.2,6.2,4.2,10.1v49.6h-50.7c-4,0-7.3-1.4-10.1-4.2
		c-2.8-2.8-4.2-6.2-4.2-10.1v-23.6h53.1V599c0-0.7-0.2-1.2-0.7-1.7s-1-0.7-1.7-0.7h-50.7v-11.9L258.1,584.7L258.1,584.7z
		 M260.5,636.7v-14.1h-41.2v11.7c0,0.7,0.2,1.2,0.7,1.7s1,0.7,1.7,0.7H260.5L260.5,636.7z M375.2,584.7h12.7l-24,63.9h-9.7
		l-21.5-47.5l-20.3,47.5l-0.2-0.1l0.1,0.1h-9.6l-25.1-63.9h12.6l17.3,42.4l18.4-42.4h13.6l19.5,42.4L375.2,584.7z M442.4,584.7
		c4,0,7.3,1.4,10.1,4.2c2.8,2.8,4.2,6.2,4.2,10.1v23.6h-53.1v11.7c0,0.7,0.2,1.2,0.7,1.7s1,0.7,1.7,0.7h50.7v11.9h-50.7
		c-4,0-7.3-1.4-10.1-4.2c-2.8-2.8-4.2-6.2-4.2-10.1V599c0-4,1.4-7.3,4.2-10.1c2.8-2.8,6.2-4.2,10.1-4.2L442.4,584.7L442.4,584.7z
		 M403.6,610.7h41.2V599c0-0.7-0.2-1.2-0.7-1.7s-1-0.7-1.7-0.7H406c-0.7,0-1.2,0.2-1.7,0.7s-0.7,1-0.7,1.7L403.6,610.7L403.6,610.7z
		 M532.7,599.1v2.4h-11.9v-2.4c0-0.7-0.2-1.2-0.7-1.7s-1-0.7-1.7-0.7h-36.4c-0.7,0-1.2,0.2-1.7,0.7s-0.7,1-0.7,1.7v9.3
		c0,0.7,0.2,1.2,0.7,1.7s1,0.7,1.7,0.7h36.4c4,0,7.3,1.4,10.1,4.2c2.8,2.8,4.2,6.2,4.2,10.1v9.3c0,4-1.4,7.3-4.2,10.1
		s-6.2,4.2-10.1,4.2h-36.4c-4,0-7.3-1.4-10.1-4.2c-2.8-2.8-4.2-6.2-4.2-10.1V632h11.9v2.4c0,0.7,0.2,1.2,0.7,1.7s1,0.7,1.7,0.7h36.4
		c0.7,0,1.2-0.2,1.7-0.7s0.7-1,0.7-1.7v-9.3c0-0.7-0.2-1.2-0.7-1.7s-1-0.7-1.7-0.7h-36.4c-4,0-7.3-1.4-10.1-4.2
		c-2.8-2.8-4.2-6.2-4.2-10.1v-9.3c0-4,1.4-7.3,4.2-10.1c2.8-2.8,6.2-4.2,10.1-4.2h36.4c4,0,7.3,1.4,10.1,4.2
		C531.3,591.7,532.7,595.1,532.7,599.1z M557.9,584.7h36.4c4,0,7.3,1.4,10.1,4.2c2.8,2.8,4.2,6.2,4.2,10.1v35.3
		c0,4-1.4,7.3-4.2,10.1c-2.8,2.8-6.2,4.2-10.1,4.2h-36.4c-4,0-7.3-1.4-10.1-4.2s-4.2-6.2-4.2-10.1V599c0-4,1.4-7.3,4.2-10.1
		C550.5,586.1,554,584.7,557.9,584.7L557.9,584.7z M594.3,596.6h-36.4c-0.7,0-1.2,0.2-1.7,0.7s-0.7,1-0.7,1.7v35.3
		c0,0.7,0.2,1.2,0.7,1.7s1,0.7,1.7,0.7h36.4c0.7,0,1.2-0.2,1.7-0.7s0.7-1,0.7-1.7V599c0-0.7-0.2-1.2-0.7-1.7
		C595.5,596.9,595,596.6,594.3,596.6z M701.8,584.7c4,0,7.3,1.4,10.1,4.2c2.8,2.8,4.2,6.2,4.2,10.1v49.6h-11.8V599
		c0-0.7-0.2-1.2-0.7-1.7s-1.1-0.7-1.8-0.7h-25.2c-0.7,0-1.2,0.2-1.7,0.7s-0.7,1-0.7,1.7v49.6h-11.9V599c0-0.7-0.2-1.2-0.7-1.7
		s-1-0.7-1.7-0.7h-25.3c-0.7,0-1.2,0.2-1.7,0.7s-0.7,1-0.7,1.7v49.6h-11.9v-63.9H701.8z M778.3,584.7c4,0,7.3,1.4,10.1,4.2
		c2.8,2.8,4.2,6.2,4.2,10.1v23.6h-53.1v11.7c0,0.7,0.2,1.2,0.7,1.7s1,0.7,1.7,0.7h50.7v11.9h-50.7c-4,0-7.3-1.4-10.1-4.2
		c-2.8-2.8-4.2-6.2-4.2-10.1V599c0-4,1.4-7.3,4.2-10.1c2.8-2.8,6.2-4.2,10.1-4.2L778.3,584.7L778.3,584.7z M739.5,610.7h41.2V599
		c0-0.7-0.2-1.2-0.7-1.7s-1-0.7-1.7-0.7h-36.4c-0.7,0-1.2,0.2-1.7,0.7s-0.7,1-0.7,1.7L739.5,610.7L739.5,610.7z"/>
	<g>
		<path class="st2" d="M562.7,493.6c-0.2,21.2-18.8,47.9-27.4,50.6h-34.5c-15.9,0-32.3,0-37.4,0c-12.1-6.9-26.1-30.8-26-51.5
			c0.2-26,16.8-49.5,41.2-58.4c1.6-0.6,2.6-2.1,2.6-3.7l0.1-18.6h38.7l-0.1,18.9c0,1.7,1,3.1,2.6,3.8
			C546.7,443.8,562.9,467.5,562.7,493.6z"/>
		<path class="st1" d="M570.7,493.6c-0.1,11-4.5,24.4-12,36.9c-2.7,4.5-12.3,19.3-22,21.5c-0.3,0.1-0.6,0.1-0.9,0.1
			c-3.1,0-18.6,0-35,0h-38.5c-0.6,0-1.3-0.2-1.8-0.5c-14.6-7.4-31.4-34.8-31.2-59.1c0.1-14.7,4.7-28.7,13.2-40.6
			c7.8-10.9,18.4-19.2,30.6-24.3l0.1-16.1l0-6.1c0-2.2,1.8-4,4-4c2.2,0,4,1.8,4,4l0,6.3l-0.1,18.6c0,1.6-1.1,3.1-2.6,3.7
			c-24.4,8.9-41,32.4-41.2,58.4c-0.1,20.7,13.9,44.6,26,51.5c5.1,0,21.5,0,37.4,0h34.5c8.6-2.7,27.3-29.4,27.4-50.6
			c0.2-26-16-49.8-40.3-59c-1.5-0.6-2.6-2.1-2.6-3.8l0.1-18.9l0-6c0-2.2,1.8-4,4-4c2.2,0,4,1.8,4,4l0,5.5l-0.1,16.7
			c12.2,5.2,22.6,13.7,30.3,24.7C566.4,464.8,570.8,478.9,570.7,493.6z"/>
		<g>
			<path class="st1" d="M534,394.9c1.6,2.5,2.9,5.3,2.9,6.2c0,0.9-1.4,4.4-3.1,7.9c0,0-0.6,1.3-5.9,2.5c-1.3,0.3-1.3,0.3-1.3,0.3
				c-1.5,0.1-5.9,0.1-9.7,0.1h-33.6c-3.9,0-8,0-9.1-0.1c0,0,0,0-1-0.2c-5.6-1-6.5-2.7-6.5-2.7c-1.8-3.4-3.3-6.9-3.3-7.8
				c0-0.9,1.3-3.7,2.9-6.2s13.2-4.6,17-4.6H517C520.9,390.3,532.5,392.4,534,394.9z"/>
		</g>
		<path class="st0" d="M538.4,537.5c-0.7,0.6-2.2,1.6-4.8,1.6c-23.9,0-70.9,0.6-71.7,0c-12.5-9.1-22.4-33.5-20.4-52.8
			c1.1-11.1,6.6-22.3,11.6-28.4c0.6-0.7,1.4-1,2.4-1.1c3.4-0.4,5.9,3,4.9,6.3c-6.3,19.9,11.7,45.1,37.2,52.3c0,0,0.1,0,0.1,0
			c1.1,0.4,2.3,0.6,3.4,0.9c1.2,0.3,2.4,0.5,3.6,0.6c1.1,0.2,2.2,0.3,3.3,0.4c0.2,0,0.4,0,0.6,0c1.2,0.1,2.3,0.1,3.5,0.1
			c8.9,0,18.3-2.3,27.6-7.7c0.2-0.1,5.4-2.5,8.9-6c7-7.2,9.9-18.5,9.9-18.5C559.4,493.7,560,519.4,538.4,537.5z"/>
		<path class="st3" d="M558.5,485.1c0,0-2.8,11.4-9.9,18.5c-3.5,3.5-8.7,5.9-8.9,6c-9.3,5.4-18.7,7.7-27.6,7.7c-1.2,0-2.4,0-3.5-0.1
			c-0.2,0-0.4,0-0.6,0c-1.1-0.1-2.2-0.2-3.3-0.4c-1.2-0.2-2.4-0.4-3.6-0.6c-1.1-0.3-2.3-0.5-3.4-0.9c0,0-0.1,0-0.1,0
			c28-5.3,48.6-32.3,42-53.5c-1-3.3,1.5-6.7,4.9-6.3c1,0.1,1.8,0.5,2.4,1.1C551.8,462.9,557.3,473.9,558.5,485.1z"/>
		<path class="st0" d="M510.8,482.2L510.8,482.2c-4.8,0-8.8-4-8.8-8.8v0c0-4.8,4-8.8,8.8-8.8l0,0c4.8,0,8.8,4,8.8,8.8v0
			C519.6,478.3,515.6,482.2,510.8,482.2z"/>
		<path class="st0" d="M492.2,500.8L492.2,500.8c-6.1,0-11.1-5-11.1-11.1v0c0-6.1,5-11.1,11.1-11.1l0,0c6.1,0,11.1,5,11.1,11.1v0
			C503.3,495.8,498.3,500.8,492.2,500.8z"/>
		<path class="st0" d="M496.6,461.8L496.6,461.8c-3.3,0-6-2.7-6-6l0,0c0-3.3,2.7-6,6-6l0,0c3.3,0,6,2.7,6,6l0,0
			C502.5,459.2,499.8,461.8,496.6,461.8z"/>
		<path class="st0" d="M507.2,447.2L507.2,447.2c-2.5,0-4.5-2-4.5-4.5l0,0c0-2.5,2-4.5,4.5-4.5l0,0c2.5,0,4.5,2,4.5,4.5l0,0
			C511.7,445.2,509.7,447.2,507.2,447.2z"/>
	</g>
</g>
</svg>
