<?xml version="1.0" encoding="utf-8"?>
<!-- Generator: Adobe Illustrator 21.0.0, SVG Export Plug-In . SVG Version: 6.00 Build 0)  -->
<svg version="1.1" id="Layer_1" xmlns="http://www.w3.org/2000/svg" xmlns:xlink="http://www.w3.org/1999/xlink" x="0px" y="0px"
	 viewBox="0 0 1000 700" style="enable-background:new 0 0 1000 700;" xml:space="preserve">
<style type="text/css">
	.st0{fill:#FC60A8;}
	.st1{fill:#494368;}
	.st2{fill:#FFFFFF;}
	.st3{fill:#AF316C;}
</style>
<path class="st0" d="M792.5,195.6L642.5,58l-21.1,23l125,114.6H253.7l125-114.7l-21.1-23l-150,137.7h-0.1v90.7
	c0,41,39.5,74.4,88,74.4H388c48.5,0,88-33.4,88-74.4v-59.6h48v59.6c0,41,39.5,74.4,88,74.4h92.5c48.5,0,88-33.4,88-74.4V195.6z"/>
<path class="st1" d="M258.1,406.3c4,0,7.3,1.4,10.1,4.2c2.8,2.8,4.2,6.2,4.2,10.1v49.6h-50.7c-4,0-7.3-1.4-10.1-4.2
	c-2.8-2.8-4.2-6.2-4.2-10.1v-23.6h53.1v-11.7c0-0.7-0.2-1.2-0.7-1.7s-1-0.7-1.7-0.7h-50.7v-11.9L258.1,406.3L258.1,406.3z
	 M260.5,458.3v-14.1h-41.2v11.7c0,0.7,0.2,1.2,0.7,1.7s1,0.7,1.7,0.7L260.5,458.3L260.5,458.3z M375.2,406.3h12.7l-24,63.9h-9.7
	l-21.5-47.5l-20.3,47.5l-0.2-0.1l0.1,0.1h-9.6l-25.1-63.9h12.6l17.3,42.4l18.4-42.4h13.6l19.5,42.4L375.2,406.3z M442.4,406.3
	c4,0,7.3,1.4,10.1,4.2c2.8,2.8,4.2,6.2,4.2,10.1v23.6h-53.1v11.7c0,0.7,0.2,1.2,0.7,1.7s1,0.7,1.7,0.7h50.7v11.9h-50.7
	c-4,0-7.3-1.4-10.1-4.2c-2.8-2.8-4.2-6.2-4.2-10.1v-35.3c0-4,1.4-7.3,4.2-10.1c2.8-2.8,6.2-4.2,10.1-4.2L442.4,406.3L442.4,406.3z
	 M403.6,432.3h41.2v-11.7c0-0.7-0.2-1.2-0.7-1.7s-1-0.7-1.7-0.7H406c-0.7,0-1.2,0.2-1.7,0.7s-0.7,1-0.7,1.7L403.6,432.3L403.6,432.3
	z M532.7,420.7v2.4h-11.9v-2.4c0-0.7-0.2-1.2-0.7-1.7s-1-0.7-1.7-0.7h-36.4c-0.7,0-1.2,0.2-1.7,0.7s-0.7,1-0.7,1.7v9.3
	c0,0.7,0.2,1.2,0.7,1.7s1,0.7,1.7,0.7h36.4c4,0,7.3,1.4,10.1,4.2c2.8,2.8,4.2,6.2,4.2,10.1v9.3c0,4-1.4,7.3-4.2,10.1
	c-2.8,2.8-6.2,4.2-10.1,4.2h-36.4c-4,0-7.3-1.4-10.1-4.2c-2.8-2.8-4.2-6.2-4.2-10.1v-2.4h11.9v2.4c0,0.7,0.2,1.2,0.7,1.7
	s1,0.7,1.7,0.7h36.4c0.7,0,1.2-0.2,1.7-0.7s0.7-1,0.7-1.7v-9.3c0-0.7-0.2-1.2-0.7-1.7s-1-0.7-1.7-0.7h-36.4c-4,0-7.3-1.4-10.1-4.2
	c-2.8-2.8-4.2-6.2-4.2-10.1v-9.3c0-4,1.4-7.3,4.2-10.1c2.8-2.8,6.2-4.2,10.1-4.2h36.4c4,0,7.3,1.4,10.1,4.2
	C531.3,413.3,532.7,416.7,532.7,420.7z M557.9,406.3h36.4c4,0,7.3,1.4,10.1,4.2c2.8,2.8,4.2,6.2,4.2,10.1v35.3c0,4-1.4,7.3-4.2,10.1
	c-2.8,2.8-6.2,4.2-10.1,4.2h-36.4c-4,0-7.3-1.4-10.1-4.2c-2.8-2.8-4.2-6.2-4.2-10.1v-35.3c0-4,1.4-7.3,4.2-10.1
	C550.5,407.7,554,406.3,557.9,406.3L557.9,406.3z M594.3,418.2h-36.4c-0.7,0-1.2,0.2-1.7,0.7s-0.7,1-0.7,1.7v35.3
	c0,0.7,0.2,1.2,0.7,1.7s1,0.7,1.7,0.7h36.4c0.7,0,1.2-0.2,1.7-0.7s0.7-1,0.7-1.7v-35.3c0-0.7-0.2-1.2-0.7-1.7
	C595.5,418.5,595,418.2,594.3,418.2z M701.8,406.3c4,0,7.3,1.4,10.1,4.2c2.8,2.8,4.2,6.2,4.2,10.1v49.6h-11.8v-49.6
	c0-0.7-0.2-1.2-0.7-1.7s-1.1-0.7-1.8-0.7h-25.2c-0.7,0-1.2,0.2-1.7,0.7s-0.7,1-0.7,1.7v49.6h-11.9v-49.6c0-0.7-0.2-1.2-0.7-1.7
	s-1-0.7-1.7-0.7h-25.3c-0.7,0-1.2,0.2-1.7,0.7s-0.7,1-0.7,1.7v49.6h-11.9v-63.9H701.8z M778.3,406.3c4,0,7.3,1.4,10.1,4.2
	c2.8,2.8,4.2,6.2,4.2,10.1v23.6h-53.1v11.7c0,0.7,0.2,1.2,0.7,1.7s1,0.7,1.7,0.7h50.7v11.9h-50.7c-4,0-7.3-1.4-10.1-4.2
	c-2.8-2.8-4.2-6.2-4.2-10.1v-35.3c0-4,1.4-7.3,4.2-10.1c2.8-2.8,6.2-4.2,10.1-4.2L778.3,406.3L778.3,406.3z M739.5,432.3h41.2v-11.7
	c0-0.7-0.2-1.2-0.7-1.7s-1-0.7-1.7-0.7h-36.4c-0.7,0-1.2,0.2-1.7,0.7s-0.7,1-0.7,1.7L739.5,432.3L739.5,432.3z"/>
<g>
	<path class="st2" d="M562.7,619.2c-0.2,21.2-18.8,47.9-27.4,50.6h-34.5c-15.9,0-32.3,0-37.4,0c-12.1-6.9-26.1-30.8-26-51.5
		c0.2-26,16.8-49.5,41.2-58.4c1.6-0.6,2.6-2.1,2.6-3.7l0.1-18.6h38.7l-0.1,18.9c0,1.7,1,3.1,2.6,3.8
		C546.7,569.5,562.9,593.2,562.7,619.2z"/>
	<path class="st1" d="M570.7,619.3c-0.1,11-4.5,24.4-12,36.9c-2.7,4.5-12.3,19.3-22,21.5c-0.3,0.1-0.6,0.1-0.9,0.1
		c-3.1,0-18.6,0-35,0h-38.5c-0.6,0-1.3-0.2-1.8-0.5c-14.6-7.4-31.4-34.8-31.2-59.1c0.1-14.7,4.7-28.7,13.2-40.6
		c7.8-10.9,18.4-19.2,30.6-24.3l0.1-16.1l0-6.1c0-2.2,1.8-4,4-4c2.2,0,4,1.8,4,4l0,6.3l-0.1,18.6c0,1.6-1.1,3.1-2.6,3.7
		c-24.4,8.9-41,32.4-41.2,58.4c-0.1,20.7,13.9,44.6,26,51.5c5.1,0,21.5,0,37.4,0h34.5c8.6-2.7,27.3-29.4,27.4-50.6
		c0.2-26-16-49.8-40.3-59c-1.5-0.6-2.6-2.1-2.6-3.8l0.1-18.9l0-6c0-2.2,1.8-4,4-4c2.2,0,4,1.8,4,4l0,5.5l-0.1,16.7
		c12.2,5.2,22.6,13.7,30.3,24.7C566.4,590.5,570.8,604.6,570.7,619.3z"/>
	<g>
		<path class="st1" d="M534,520.5c1.6,2.5,2.9,5.3,2.9,6.2c0,0.9-1.4,4.4-3.1,7.9c0,0-0.6,1.3-5.9,2.5c-1.3,0.3-1.3,0.3-1.3,0.3
			c-1.5,0.1-5.9,0.1-9.7,0.1h-33.6c-3.9,0-8,0-9.1-0.1c0,0,0,0-1-0.2c-5.6-1-6.5-2.7-6.5-2.7c-1.8-3.4-3.3-6.9-3.3-7.8
			c0-0.9,1.3-3.7,2.9-6.2c1.6-2.5,13.2-4.6,17-4.6H517C520.9,515.9,532.5,518,534,520.5z"/>
	</g>
	<path class="st0" d="M538.4,663.1c-0.7,0.6-2.2,1.6-4.8,1.6c-23.9,0-70.9,0.6-71.7,0c-12.5-9.1-22.4-33.5-20.4-52.8
		c1.1-11.1,6.6-22.3,11.6-28.4c0.6-0.7,1.4-1,2.4-1.1c3.4-0.4,5.9,3,4.9,6.3c-6.3,19.9,11.7,45.1,37.2,52.3c0,0,0.1,0,0.1,0
		c1.1,0.4,2.3,0.6,3.4,0.9c1.2,0.3,2.4,0.5,3.6,0.6c1.1,0.2,2.2,0.3,3.3,0.4c0.2,0,0.4,0,0.6,0c1.2,0.1,2.3,0.1,3.5,0.1
		c8.9,0,18.3-2.3,27.6-7.7c0.2-0.1,5.4-2.5,8.9-6c7-7.2,9.9-18.5,9.9-18.5C559.4,619.4,560,645,538.4,663.1z"/>
	<path class="st3" d="M558.5,610.7c0,0-2.8,11.4-9.9,18.5c-3.5,3.5-8.7,5.9-8.9,6c-9.3,5.4-18.7,7.7-27.6,7.7c-1.2,0-2.4,0-3.5-0.1
		c-0.2,0-0.4,0-0.6,0c-1.1-0.1-2.2-0.2-3.3-0.4c-1.2-0.2-2.4-0.4-3.6-0.6c-1.1-0.3-2.3-0.5-3.4-0.9c0,0-0.1,0-0.1,0
		c28-5.3,48.6-32.3,42-53.5c-1-3.3,1.5-6.7,4.9-6.3c1,0.1,1.8,0.5,2.4,1.1C551.8,588.5,557.3,599.6,558.5,610.7z"/>
	<path class="st0" d="M510.8,607.8L510.8,607.8c-4.8,0-8.8-4-8.8-8.8l0,0c0-4.8,4-8.8,8.8-8.8l0,0c4.8,0,8.8,4,8.8,8.8l0,0
		C519.6,603.9,515.6,607.8,510.8,607.8z"/>
	<path class="st0" d="M492.2,626.4L492.2,626.4c-6.1,0-11.1-5-11.1-11.1v0c0-6.1,5-11.1,11.1-11.1l0,0c6.1,0,11.1,5,11.1,11.1v0
		C503.3,621.4,498.3,626.4,492.2,626.4z"/>
	<path class="st0" d="M496.6,587.5L496.6,587.5c-3.3,0-6-2.7-6-6l0,0c0-3.3,2.7-6,6-6l0,0c3.3,0,6,2.7,6,6l0,0
		C502.5,584.8,499.8,587.5,496.6,587.5z"/>
	<path class="st0" d="M507.2,572.9L507.2,572.9c-2.5,0-4.5-2-4.5-4.5l0,0c0-2.5,2-4.5,4.5-4.5l0,0c2.5,0,4.5,2,4.5,4.5l0,0
		C511.7,570.8,509.7,572.9,507.2,572.9z"/>
</g>
</svg>
